# xmcd CD database file
#
# Track frame offsets:
#	150
#	13624
#	31471
#	43083
#	65107
#	77762
#	89528
#	107350
#	120419
#
# Disc length: 1828 seconds
#
# Revision: 1
# Processed by: cddbd v1.5.1PL0 Copyright (c) Steve Scherf et al.
# Submitted via: CDex 1.50beta10
#
DISCID=6d072209
DTITLE=Jim Whitaker - I'm Called
DYEAR=2005
DGENRE=Country
TTITLE0=Get Away From The Window
TTITLE1=Dying Again
TTITLE2=Old Habits
TTITLE3=I'm Called
TTITLE4=Sunday Night Live
TTITLE5=He's Here
TTITLE6=Take Me Lord And Use Me
TTITLE7=More Than That
TTITLE8=The Name Of The Lord
EXTD=YEAR: 2005
EXTT0=
EXTT1=
EXTT2=
EXTT3=
EXTT4=
EXTT5=
EXTT6=
EXTT7=
EXTT8=
PLAYORDER=
